<svg width="102" height="96" viewBox="0 0 102 96" fill="none" xmlns="http://www.w3.org/2000/svg">
<path d="M15.0548 66.2015L69.5549 15.2009L100.055 15.2009L15.0547 95.7011L15.0548 66.2015Z" fill="#D36B31"/>
<path d="M32.2879 63.7326L32.8372 64.3495L28.7703 67.9715L28.221 67.3547L32.2879 63.7326ZM31.2878 59.8615L30.7012 59.2029L32.4785 57.62L39.1546 65.1161L38.4123 65.7771L32.3228 58.9397L31.2878 59.8615ZM37.3869 59.8476C36.3192 58.6488 35.6752 57.5538 35.4549 56.5627C35.2346 55.5715 35.6019 54.6508 36.5568 53.8003C37.5116 52.9499 38.4686 52.6913 39.4277 53.0244C40.3868 53.3576 41.4002 54.1236 42.4679 55.3224C43.5542 56.5421 44.2106 57.651 44.4371 58.6491C44.6636 59.6472 44.2995 60.5715 43.3446 61.4219C42.3827 62.2785 41.4192 62.5368 40.4539 62.1967C39.4955 61.8503 38.4732 61.0673 37.3869 59.8476ZM41.7465 55.9648C41.1692 55.3166 40.6367 54.8099 40.1488 54.4445C39.6609 54.0791 39.1635 53.8785 38.6565 53.8425C38.1496 53.8066 37.6452 54.0121 37.1434 54.459C36.6415 54.9059 36.3792 55.3833 36.3565 55.891C36.3337 56.3987 36.4757 56.9159 36.7823 57.4427C37.089 57.9694 37.531 58.5569 38.1083 59.2051C38.7042 59.8742 39.2492 60.395 39.7433 60.7673C40.2312 61.1327 40.7286 61.3333 41.2355 61.3693C41.7425 61.4052 42.2468 61.1997 42.7487 60.7528C43.2505 60.3059 43.5128 59.8285 43.5356 59.3208C43.5583 58.8131 43.4164 58.2959 43.1097 57.7691C42.7968 57.2354 42.3424 56.634 41.7465 55.9648ZM41.7184 52.2029C41.3211 51.7569 41.1373 51.2769 41.1671 50.763C41.1976 50.2359 41.4254 49.783 41.8506 49.4043C42.2827 49.0195 42.7588 48.8454 43.2789 48.8821C43.7998 48.9056 44.2589 49.1404 44.6562 49.5865C45.0597 50.0396 45.2462 50.5296 45.2157 51.0567C45.1859 51.5706 44.955 52.02 44.5229 52.4049C44.0977 52.7835 43.6247 52.9611 43.1038 52.9376C42.5837 52.9009 42.1219 52.656 41.7184 52.2029ZM46.3347 45.5982L48.566 56.7341L47.8237 57.3952L45.6029 46.25L46.3347 45.5982ZM42.2696 49.8748C42.0047 50.1107 41.8728 50.3906 41.8739 50.7146C41.8758 51.0254 42.0226 51.3446 42.3143 51.6722C42.6061 51.9998 42.9093 52.1859 43.224 52.2306C43.5457 52.269 43.839 52.1703 44.1039 51.9344C44.3687 51.6985 44.5006 51.4186 44.4995 51.0946C44.4984 50.7706 44.352 50.4448 44.0603 50.1172C43.7747 49.7966 43.4711 49.6171 43.1494 49.5787C42.8277 49.5402 42.5344 49.6389 42.2696 49.8748ZM49.5231 53.3883C49.1197 52.9353 48.9328 52.4518 48.9625 51.9379C48.993 51.4108 49.2209 50.9579 49.646 50.5793C50.0712 50.2006 50.5438 50.0296 51.0639 50.0663C51.5848 50.0899 52.047 50.3282 52.4505 50.7812C52.854 51.2342 53.0405 51.7243 53.01 52.2514C52.9802 52.7653 52.7528 53.2116 52.3276 53.5902C51.9025 53.9689 51.4294 54.1465 50.9086 54.1229C50.3884 54.0862 49.9266 53.8414 49.5231 53.3883ZM50.0743 51.0602C49.8095 51.2961 49.6776 51.576 49.6787 51.9C49.6798 52.224 49.8231 52.5463 50.1086 52.8669C50.3942 53.1875 50.6978 53.367 51.0195 53.4055C51.3412 53.4439 51.6345 53.3452 51.8993 53.1093C52.1642 52.8734 52.2957 52.6001 52.2938 52.2893C52.2927 51.9653 52.1463 51.6395 51.8546 51.3119C51.5628 50.9843 51.2592 50.8048 50.9437 50.7733C50.629 50.7287 50.3392 50.8243 50.0743 51.0602ZM61.1874 45.6247C60.5113 46.2268 59.7583 46.6162 58.9284 46.7929C58.0922 46.9627 57.2624 46.9081 56.439 46.6291C55.6163 46.3369 54.8853 45.8318 54.246 45.1139C53.6066 44.396 53.1923 43.6152 53.0032 42.7713C52.8148 41.9142 52.8562 41.0836 53.1275 40.2796C53.3926 39.4686 53.8632 38.762 54.5393 38.1599C55.2223 37.5516 55.9819 37.1625 56.8181 36.9928C57.648 36.816 58.4743 36.8738 59.297 37.166C60.1134 37.4512 60.8413 37.9527 61.4807 38.6706C62.1201 39.3885 62.5374 40.1729 62.7328 41.0238C62.9219 41.8677 62.884 42.6951 62.6189 43.5061C62.3476 44.3101 61.8705 45.0163 61.1874 45.6247ZM60.6194 44.9869C61.1631 44.5027 61.5392 43.9428 61.7479 43.307C61.9566 42.6712 61.9784 42.0081 61.8134 41.3176C61.6422 40.6202 61.2804 39.9614 60.7279 39.341C60.1755 38.7207 59.5659 38.2888 58.899 38.0453C58.2322 37.8018 57.571 37.747 56.9154 37.8809C56.2598 38.0149 55.6602 38.3239 55.1165 38.8081C54.5729 39.2923 54.1967 39.8523 53.9881 40.4881C53.7794 41.1238 53.7576 41.7869 53.9226 42.4774C54.0875 43.1678 54.4463 43.8232 54.9987 44.4435C55.5512 45.0639 56.1639 45.4993 56.8369 45.7497C57.5038 45.9933 58.165 46.048 58.8206 45.9141C59.4762 45.7801 60.0758 45.4711 60.6194 44.9869ZM63.5221 30.3097L64.0622 30.9161L60.8421 33.7839L63.2723 36.5126L65.9906 34.0917L66.5306 34.6981L63.8124 37.119L66.8105 40.4854L66.0787 41.1372L59.5702 33.8293L63.5221 30.3097ZM68.6781 25.7178L69.2181 26.3241L65.998 29.192L68.4282 31.9207L71.1465 29.4998L71.6865 30.1062L68.9683 32.527L71.9665 35.8935L71.2346 36.5453L64.7261 29.2374L68.6781 25.7178Z" fill="white"/>
</svg>
